<svg width="32" height="22" viewBox="0 0 32 22" fill="none" xmlns="http://www.w3.org/2000/svg">
    <g clip-path="url(#clip0)">
    <path fill-rule="evenodd" clip-rule="evenodd" d="M0 2C0 1.17157 0.671573 0.5 1.5 0.5H30.5C31.3284 0.5 32 1.17157 32 2V20C32 20.8284 31.3284 21.5 30.5 21.5H1.5C0.671573 21.5 0 20.8284 0 20V2Z" fill="#98A9BC" fill-opacity="0.68"/>
    <path fill-rule="evenodd" clip-rule="evenodd" d="M0 2C0 1.17157 0.671573 0.5 1.5 0.5H30.5C31.3284 0.5 32 1.17157 32 2V20C32 20.8284 31.3284 21.5 30.5 21.5H1.5C0.671573 21.5 0 20.8284 0 20V2Z" fill="#E5E5E5" fill-opacity="0.01"/>
    <path d="M3.5 3.5H9.5" stroke="#4B506D"/>
    <path d="M3.5 5.5H9.5" stroke="#4B506D"/>
    <path d="M4 16H14" stroke="#4B506D"/>
    <path d="M19 16H29" stroke="#4B506D"/>
    <path d="M3.47803 9.83301L29.0216 9.66805" stroke="#4B506D"/>
    <path d="M3.47803 11.833L29.0216 11.6681" stroke="#4B506D"/>
    </g>
    <defs>
    <clipPath id="clip0">
    <rect width="32" height="21" fill="white" transform="translate(0 0.5)"/>
    </clipPath>
    </defs>
    </svg>