<svg width="32" height="21" viewBox="0 0 32 21" fill="none" xmlns="http://www.w3.org/2000/svg">
<path fill-rule="evenodd" clip-rule="evenodd" d="M0 1.5C0 0.671573 0.671573 0 1.5 0H30.5C31.3284 0 32 0.671573 32 1.5V19.5C32 20.3284 31.3284 21 30.5 21H1.5C0.671573 21 0 20.3284 0 19.5V1.5Z" fill="url(#paint0_radial)"/>
<path d="M16.32 6.384C16.776 6.4 17.244 6.48 17.724 6.624C18.204 6.768 18.632 6.992 19.008 7.296C18.616 7.744 18.228 8.18 17.844 8.604C17.644 8.404 17.404 8.248 17.124 8.136C16.844 8.024 16.576 7.964 16.32 7.956V9.876C16.632 9.972 16.948 10.08 17.268 10.2C17.588 10.32 17.88 10.48 18.144 10.68C18.408 10.88 18.624 11.124 18.792 11.412C18.96 11.7 19.044 12.06 19.044 12.492C19.044 12.932 18.964 13.316 18.804 13.644C18.652 13.964 18.444 14.232 18.18 14.448C17.924 14.664 17.628 14.828 17.292 14.94C16.964 15.052 16.624 15.112 16.272 15.12V15.996H15.384V15.12C14.864 15.104 14.34 15.008 13.812 14.832C13.284 14.648 12.82 14.376 12.42 14.016C12.628 13.8 12.836 13.584 13.044 13.368C13.26 13.144 13.472 12.92 13.68 12.696C13.784 12.816 13.908 12.928 14.052 13.032C14.196 13.128 14.344 13.212 14.496 13.284C14.648 13.356 14.8 13.416 14.952 13.464C15.104 13.504 15.248 13.524 15.384 13.524V11.424C15.04 11.328 14.708 11.22 14.388 11.1C14.076 10.98 13.8 10.824 13.56 10.632C13.32 10.44 13.128 10.208 12.984 9.936C12.84 9.656 12.768 9.316 12.768 8.916C12.768 8.524 12.848 8.176 13.008 7.872C13.168 7.56 13.376 7.3 13.632 7.092C13.888 6.876 14.176 6.712 14.496 6.6C14.816 6.48 15.132 6.412 15.444 6.396V5.568H16.32V6.384ZM15.444 7.932C15.228 7.956 15.032 8.04 14.856 8.184C14.688 8.32 14.604 8.52 14.604 8.784C14.604 9.04 14.68 9.236 14.832 9.372C14.984 9.508 15.188 9.608 15.444 9.672V7.932ZM16.272 13.536C16.544 13.52 16.756 13.432 16.908 13.272C17.068 13.104 17.148 12.88 17.148 12.6C17.148 12.32 17.064 12.112 16.896 11.976C16.736 11.832 16.528 11.72 16.272 11.64V13.536Z" fill="white" fill-opacity="0.96"/>
<path d="M16.32 6.384H15.32V7.34953L16.2849 7.38338L16.32 6.384ZM17.724 6.624L18.0113 5.66617L18.0113 5.66617L17.724 6.624ZM19.008 7.296L19.7606 7.9545L20.4452 7.17205L19.6367 6.51837L19.008 7.296ZM17.844 8.604L17.1369 9.31111L17.8799 10.0541L18.5852 9.27528L17.844 8.604ZM16.32 7.956L16.3512 6.95649L15.32 6.92426V7.956H16.32ZM16.32 9.876H15.32V10.6146L16.0259 10.8318L16.32 9.876ZM17.268 10.2L16.9169 11.1363L16.9169 11.1363L17.268 10.2ZM18.792 11.412L19.6558 10.9081L19.6558 10.9081L18.792 11.412ZM18.804 13.644L17.9052 13.2056L17.9007 13.2149L18.804 13.644ZM18.18 14.448L17.5468 13.674L17.5409 13.6788L17.5351 13.6837L18.18 14.448ZM17.292 14.94L16.9758 13.9913L16.9689 13.9937L17.292 14.94ZM16.272 15.12L16.2493 14.1203L15.272 14.1425V15.12H16.272ZM16.272 15.996V16.996H17.272V15.996H16.272ZM15.384 15.996H14.384V16.996H15.384V15.996ZM15.384 15.12H16.384V14.1503L15.4148 14.1205L15.384 15.12ZM13.812 14.832L13.4829 15.7764L13.4958 15.7807L13.812 14.832ZM12.42 14.016L11.6997 13.3224L10.9822 14.0674L11.751 14.7593L12.42 14.016ZM13.044 13.368L12.3242 12.6739L12.3237 12.6744L13.044 13.368ZM13.68 12.696L14.4357 12.0411L13.7057 11.1987L12.9472 12.0155L13.68 12.696ZM14.052 13.032L13.4665 13.8427L13.4817 13.8537L13.4973 13.8641L14.052 13.032ZM14.496 13.284L14.0679 14.1877L14.0679 14.1877L14.496 13.284ZM14.952 13.464L14.6509 14.4176L14.674 14.4249L14.6975 14.4311L14.952 13.464ZM15.384 13.524V14.524H16.384V13.524H15.384ZM15.384 11.424H16.384V10.6649L15.6528 10.4608L15.384 11.424ZM14.388 11.1L14.029 12.0334L14.0369 12.0363L14.388 11.1ZM13.56 10.632L14.1847 9.85113L14.1847 9.85113L13.56 10.632ZM12.984 9.936L12.0946 10.3934L12.1002 10.4039L12.984 9.936ZM13.008 7.872L13.893 8.33777L13.8978 8.32832L13.008 7.872ZM13.632 7.092L14.2626 7.86811L14.2698 7.86227L14.2769 7.85629L13.632 7.092ZM14.496 6.6L14.8264 7.54386L14.8368 7.54021L14.8471 7.53633L14.496 6.6ZM15.444 6.396L15.4952 7.39469L16.444 7.34603V6.396H15.444ZM15.444 5.568V4.568H14.444V5.568H15.444ZM16.32 5.568H17.32V4.568H16.32V5.568ZM15.444 7.932H16.444V6.81473L15.3336 6.93812L15.444 7.932ZM14.856 8.184L15.4852 8.96125L15.4892 8.95796L14.856 8.184ZM14.832 9.372L14.1652 10.1172L14.1652 10.1172L14.832 9.372ZM15.444 9.672L15.2015 10.6421L16.444 10.9528V9.672H15.444ZM16.272 13.536H15.272V14.5966L16.3307 14.5343L16.272 13.536ZM16.908 13.272L16.1839 12.5823L16.183 12.5833L16.908 13.272ZM16.896 11.976L16.227 12.7193L16.2465 12.7368L16.2668 12.7532L16.896 11.976ZM16.272 11.64L16.5703 10.6855L15.272 10.2798V11.64H16.272ZM16.2849 7.38338C16.6475 7.39611 17.0307 7.46003 17.4367 7.58183L18.0113 5.66617C17.4573 5.49997 16.9045 5.40389 16.3551 5.38461L16.2849 7.38338ZM17.4367 7.58183C17.7969 7.68989 18.108 7.85428 18.3793 8.07363L19.6367 6.51837C19.156 6.12972 18.6111 5.84611 18.0113 5.66617L17.4367 7.58183ZM18.2554 6.63749C17.867 7.08138 17.4828 7.51311 17.1028 7.93272L18.5852 9.27528C18.9732 8.84689 19.365 8.40662 19.7606 7.9545L18.2554 6.63749ZM18.5511 7.89689C18.2491 7.5949 17.8927 7.36644 17.4954 7.20752L16.7526 9.06448C16.9153 9.12956 17.0389 9.2131 17.1369 9.31111L18.5511 7.89689ZM17.4954 7.20752C17.1258 7.0597 16.7426 6.96872 16.3512 6.95649L16.2888 8.95551C16.4094 8.95928 16.5622 8.9883 16.7526 9.06448L17.4954 7.20752ZM15.32 7.956V9.876H17.32V7.956H15.32ZM16.0259 10.8318C16.3178 10.9216 16.6148 11.0231 16.9169 11.1363L17.6191 9.26367C17.2812 9.13694 16.9462 9.0224 16.6141 8.92022L16.0259 10.8318ZM16.9169 11.1363C17.1493 11.2235 17.3557 11.3373 17.5401 11.4771L18.7479 9.88291C18.4044 9.62267 18.0267 9.41653 17.6191 9.26367L16.9169 11.1363ZM17.5401 11.4771C17.6983 11.5969 17.8262 11.741 17.9282 11.9159L19.6558 10.9081C19.4218 10.507 19.1177 10.1631 18.7479 9.88291L17.5401 11.4771ZM17.9282 11.9159C17.9843 12.0121 18.044 12.1859 18.044 12.492H20.044C20.044 11.9341 19.9357 11.3879 19.6558 10.9081L17.9282 11.9159ZM18.044 12.492C18.044 12.8109 17.9863 13.0394 17.9052 13.2056L19.7028 14.0824C19.9417 13.5926 20.044 13.0531 20.044 12.492H18.044ZM17.9007 13.2149C17.8096 13.4067 17.6919 13.5553 17.5468 13.674L18.8132 15.222C19.1961 14.9087 19.4944 14.5213 19.7073 14.0731L17.9007 13.2149ZM17.5351 13.6837C17.3815 13.8134 17.1985 13.9171 16.9758 13.9913L17.6082 15.8887C18.0575 15.7389 18.4665 15.5146 18.8249 15.2123L17.5351 13.6837ZM16.9689 13.9937C16.7392 14.0721 16.5006 14.1145 16.2493 14.1203L16.2947 16.1197C16.7474 16.1095 17.1888 16.0319 17.6151 15.8863L16.9689 13.9937ZM15.272 15.12V15.996H17.272V15.12H15.272ZM16.272 14.996H15.384V16.996H16.272V14.996ZM16.384 15.996V15.12H14.384V15.996H16.384ZM15.4148 14.1205C14.9984 14.1077 14.5705 14.0307 14.1282 13.8833L13.4958 15.7807C14.1095 15.9853 14.7296 16.1003 15.3532 16.1195L15.4148 14.1205ZM14.1411 13.8877C13.7336 13.7457 13.3863 13.5403 13.089 13.2727L11.751 14.7593C12.2537 15.2117 12.8344 15.5503 13.4829 15.7763L14.1411 13.8877ZM13.1403 14.7096C13.3483 14.4936 13.5563 14.2776 13.7643 14.0616L12.3237 12.6744C12.1157 12.8904 11.9077 13.1064 11.6997 13.3224L13.1403 14.7096ZM13.7638 14.0621C13.9841 13.8337 14.2004 13.6051 14.4128 13.3765L12.9472 12.0155C12.7436 12.2349 12.5359 12.4543 12.3242 12.6739L13.7638 14.0621ZM12.9243 13.3509C13.0844 13.5356 13.2672 13.6988 13.4665 13.8427L14.6375 12.2213C14.5488 12.1572 14.4836 12.0964 14.4357 12.0411L12.9243 13.3509ZM13.4973 13.8641C13.6805 13.9862 13.8708 14.0944 14.0679 14.1877L14.9241 12.3803C14.8172 12.3296 14.7115 12.2698 14.6067 12.1999L13.4973 13.8641ZM14.0679 14.1877C14.2588 14.2782 14.4532 14.3551 14.6509 14.4176L15.2531 12.5104C15.1468 12.4769 15.0372 12.4338 14.9241 12.3803L14.0679 14.1877ZM14.6975 14.4311C14.92 14.4896 15.15 14.524 15.384 14.524V12.524C15.346 12.524 15.288 12.5184 15.2065 12.4969L14.6975 14.4311ZM16.384 13.524V11.424H14.384V13.524H16.384ZM15.6528 10.4608C15.3354 10.3722 15.0309 10.2731 14.7391 10.1637L14.0369 12.0363C14.3851 12.1669 14.7446 12.2838 15.1152 12.3872L15.6528 10.4608ZM14.747 10.1667C14.5225 10.0803 14.3378 9.97359 14.1847 9.85113L12.9353 11.4129C13.2622 11.6744 13.6295 11.8797 14.029 12.0333L14.747 10.1667ZM14.1847 9.85113C14.0517 9.74475 13.9478 9.61932 13.8678 9.46811L12.1002 10.4039C12.3082 10.7967 12.5883 11.1353 12.9353 11.4129L14.1847 9.85113ZM13.8733 9.47865C13.8191 9.37319 13.768 9.1988 13.768 8.916H11.768C11.768 9.4332 11.8609 9.93881 12.0947 10.3933L13.8733 9.47865ZM13.768 8.916C13.768 8.66319 13.8186 8.479 13.8929 8.33775L12.1231 7.40625C11.8774 7.873 11.768 8.38481 11.768 8.916H13.768ZM13.8978 8.32832C13.9986 8.13183 14.1209 7.98321 14.2626 7.86811L13.0014 6.31589C12.6311 6.61679 12.3374 6.98817 12.1182 7.41568L13.8978 8.32832ZM14.2769 7.85629C14.4387 7.71976 14.6198 7.61615 14.8264 7.54386L14.1656 5.65614C13.7322 5.80785 13.3373 6.03224 12.9871 6.32771L14.2769 7.85629ZM14.8471 7.53633C15.0799 7.44903 15.295 7.40496 15.4952 7.39469L15.3928 5.39731C14.969 5.41904 14.5521 5.51097 14.1449 5.66367L14.8471 7.53633ZM16.444 6.396V5.568H14.444V6.396H16.444ZM15.444 6.568H16.32V4.568H15.444V6.568ZM15.32 5.568V6.384H17.32V5.568H15.32ZM15.3336 6.93812C14.9166 6.98445 14.5409 7.14978 14.2228 7.41004L15.4892 8.95796C15.5231 8.93022 15.5394 8.92755 15.5544 8.92588L15.3336 6.93812ZM14.2268 7.40676C13.7724 7.77457 13.604 8.2919 13.604 8.784H15.604C15.604 8.75685 15.6084 8.77711 15.589 8.82323C15.5673 8.87483 15.53 8.92501 15.4852 8.96124L14.2268 7.40676ZM13.604 8.784C13.604 9.24654 13.7493 9.74512 14.1652 10.1172L15.4988 8.62676C15.544 8.66722 15.5761 8.71708 15.5934 8.76147C15.6086 8.80085 15.604 8.81448 15.604 8.784H13.604ZM14.1652 10.1172C14.4686 10.3887 14.8328 10.55 15.2015 10.6421L15.6865 8.70186C15.5432 8.66603 15.4994 8.62731 15.4988 8.62676L14.1652 10.1172ZM16.444 9.672V7.932H14.444V9.672H16.444ZM16.3307 14.5343C16.7936 14.507 17.2675 14.3455 17.633 13.9607L16.183 12.5833C16.1938 12.5718 16.2064 12.5612 16.2197 12.5521C16.2329 12.5431 16.2442 12.5375 16.2516 12.5344C16.2662 12.5284 16.258 12.5351 16.2133 12.5377L16.3307 14.5343ZM17.6321 13.9617C18.0046 13.5706 18.148 13.0804 18.148 12.6H16.148C16.148 12.6452 16.1416 12.6548 16.1463 12.6417C16.1486 12.6351 16.153 12.6251 16.1601 12.6133C16.1674 12.6016 16.1756 12.591 16.1839 12.5823L17.6321 13.9617ZM18.148 12.6C18.148 12.1146 17.9936 11.5779 17.5252 11.1988L16.2668 12.7532C16.2428 12.7338 16.2196 12.7099 16.1995 12.6825C16.1796 12.6552 16.1662 12.6293 16.1578 12.6085C16.1414 12.5679 16.148 12.5576 16.148 12.6H18.148ZM17.565 11.2327C17.2751 10.9718 16.9307 10.7982 16.5703 10.6855L15.9737 12.5945C16.1253 12.6418 16.1969 12.6922 16.227 12.7193L17.565 11.2327ZM15.272 11.64V13.536H17.272V11.64H15.272Z" fill="#2D293D" fill-opacity="0.24"/>
<defs>
<radialGradient id="paint0_radial" cx="0" cy="0" r="1" gradientUnits="userSpaceOnUse" gradientTransform="translate(10.7461 3.98047) rotate(90) scale(21 32)">
<stop stop-color="#61BB79"/>
<stop offset="1" stop-color="#109235"/>
</radialGradient>
</defs>
</svg>
