<?xml version="1.0" encoding="UTF-8"?>
<svg xmlns="http://www.w3.org/2000/svg" xmlns:xlink="http://www.w3.org/1999/xlink" width="32px" height="21px" viewBox="0 0 32 21" version="1.1">
<g id="surface1">
<path style=" stroke:none;fill-rule:nonzero;fill:rgb(7.843137%,20.392157%,79.607843%);fill-opacity:1;" d="M 13.816406 7.476562 L 11.441406 13.539062 L 9.890625 13.539062 L 8.71875 8.703125 C 8.648438 8.402344 8.585938 8.292969 8.371094 8.167969 C 8.019531 7.964844 7.4375 7.773438 6.925781 7.652344 L 6.957031 7.476562 L 9.453125 7.476562 C 9.773438 7.476562 10.058594 7.703125 10.132812 8.09375 L 10.75 11.601562 L 12.273438 7.476562 Z M 19.890625 11.558594 C 19.898438 9.960938 17.820312 9.871094 17.835938 9.15625 C 17.839844 8.941406 18.035156 8.707031 18.457031 8.648438 C 18.667969 8.621094 19.246094 8.597656 19.902344 8.921875 L 20.160156 7.636719 C 19.808594 7.5 19.355469 7.367188 18.789062 7.367188 C 17.339844 7.367188 16.320312 8.191406 16.3125 9.371094 C 16.300781 10.242188 17.039062 10.730469 17.59375 11.019531 C 18.167969 11.316406 18.359375 11.507812 18.355469 11.773438 C 18.351562 12.179688 17.902344 12.359375 17.476562 12.367188 C 16.742188 12.378906 16.3125 12.152344 15.972656 11.984375 L 15.707031 13.3125 C 16.050781 13.480469 16.679688 13.625 17.335938 13.632812 C 18.878906 13.632812 19.886719 12.820312 19.890625 11.558594 M 23.71875 13.539062 L 25.074219 13.539062 L 23.890625 7.476562 L 22.640625 7.476562 C 22.359375 7.476562 22.121094 7.652344 22.015625 7.921875 L 19.816406 13.539062 L 21.355469 13.539062 L 21.660156 12.632812 L 23.542969 12.632812 Z M 22.082031 11.390625 L 22.855469 9.113281 L 23.300781 11.390625 Z M 15.910156 7.476562 L 14.699219 13.539062 L 13.230469 13.539062 L 14.445312 7.476562 Z M 15.910156 7.476562 "/>
</g>
</svg>
