<?xml version="1.0" encoding="UTF-8"?>
<svg xmlns="http://www.w3.org/2000/svg" xmlns:xlink="http://www.w3.org/1999/xlink" width="780px" height="500px" viewBox="0 0 585 375" version="1.1">
<g id="surface1">
<path style=" stroke:none;fill-rule:nonzero;fill:rgb(22.352941%,22.352941%,22.352941%);fill-opacity:1;" d="M 30 0 L 555 0 C 571.570312 0 585 13.429688 585 30 L 585 345 C 585 361.570312 571.570312 375 555 375 L 30 375 C 13.429688 375 0 361.570312 0 345 L 0 30 C 0 13.429688 13.429688 0 30 0 Z M 30 0 "/>
<path style=" stroke:none;fill-rule:nonzero;fill:rgb(100%,100%,100%);fill-opacity:0.74902;" d="M 51.773438 115.183594 L 104.03125 115.183594 C 112.449219 115.183594 119.273438 122.007812 119.273438 130.425781 L 119.273438 174.703125 C 119.273438 183.121094 112.449219 189.945312 104.03125 189.945312 L 51.773438 189.945312 C 43.355469 189.945312 36.53125 183.121094 36.53125 174.703125 L 36.53125 130.425781 C 36.53125 122.007812 43.355469 115.183594 51.773438 115.183594 Z M 51.773438 115.183594 "/>
<path style=" stroke:none;fill-rule:nonzero;fill:rgb(100%,100%,100%);fill-opacity:1;" d="M 58.578125 232.777344 L 58.578125 229.929688 L 54.738281 229.929688 L 54.738281 221.480469 L 51.589844 221.480469 L 51.289062 229.929688 L 42.707031 229.929688 L 50.640625 211.128906 L 47.667969 209.835938 L 38.910156 230.191406 L 38.910156 232.777344 L 51.246094 232.777344 L 51.246094 240.023438 L 54.738281 240.023438 L 54.738281 232.777344 Z M 73.265625 209.835938 C 70.246094 209.835938 67.359375 210.871094 64.855469 213.285156 L 66.796875 215.484375 C 68.78125 213.628906 70.546875 212.726562 73.09375 212.726562 C 76.242188 212.726562 78.742188 214.492188 78.742188 217.769531 C 78.742188 221.351562 75.941406 222.988281 73.09375 222.988281 L 71.324219 222.988281 L 70.894531 225.835938 L 73.394531 225.835938 C 76.886719 225.835938 79.5625 227.214844 79.5625 231.484375 C 79.5625 235.191406 77.105469 237.566406 72.921875 237.566406 C 70.507812 237.566406 68.003906 236.574219 66.324219 234.589844 L 63.90625 236.574219 C 66.148438 239.332031 69.6875 240.496094 73.007812 240.496094 C 79.132812 240.496094 83.3125 236.617188 83.3125 231.484375 C 83.3125 226.871094 80.035156 224.453125 76.542969 224.195312 C 79.691406 223.59375 82.363281 220.875 82.363281 217.296875 C 82.363281 213.242188 78.828125 209.835938 73.265625 209.835938 Z M 99.125 209.835938 C 95.113281 209.835938 92.441406 211.257812 90.066406 214.105469 L 92.570312 216.003906 C 94.464844 213.800781 96.0625 212.855469 98.996094 212.855469 C 102.316406 212.855469 104.296875 214.921875 104.296875 218.246094 C 104.296875 223.117188 101.882812 226.351562 90.671875 237.089844 L 90.671875 240.023438 L 108.308594 240.023438 L 108.742188 236.960938 L 94.769531 236.960938 C 104.558594 228.035156 108.050781 223.59375 108.050781 218.160156 C 108.050781 213.414062 104.730469 209.835938 99.125 209.835938 Z M 135.675781 237.089844 L 129.46875 237.089844 L 129.46875 210.351562 L 126.320312 210.351562 L 117.519531 215.785156 L 119.074219 218.332031 L 125.886719 214.234375 L 125.886719 237.089844 L 118.554688 237.089844 L 118.554688 240.023438 L 135.675781 240.023438 Z M 187.867188 232.777344 L 187.867188 229.929688 L 184.03125 229.929688 L 184.03125 221.480469 L 180.882812 221.480469 L 180.578125 229.929688 L 171.996094 229.929688 L 179.933594 211.128906 L 176.957031 209.835938 L 168.203125 230.191406 L 168.203125 232.777344 L 180.535156 232.777344 L 180.535156 240.023438 L 184.03125 240.023438 L 184.03125 232.777344 Z M 202.554688 209.835938 C 199.539062 209.835938 196.648438 210.871094 194.148438 213.285156 L 196.085938 215.484375 C 198.070312 213.628906 199.839844 212.726562 202.382812 212.726562 C 205.53125 212.726562 208.035156 214.492188 208.035156 217.769531 C 208.035156 221.351562 205.230469 222.988281 202.382812 222.988281 L 200.617188 222.988281 L 200.183594 225.835938 L 202.6875 225.835938 C 206.179688 225.835938 208.851562 227.214844 208.851562 231.484375 C 208.851562 235.191406 206.394531 237.566406 202.210938 237.566406 C 199.796875 237.566406 197.296875 236.574219 195.613281 234.589844 L 193.199219 236.574219 C 195.441406 239.332031 198.976562 240.496094 202.296875 240.496094 C 208.421875 240.496094 212.605469 236.617188 212.605469 231.484375 C 212.605469 226.871094 209.328125 224.453125 205.832031 224.195312 C 208.980469 223.59375 211.65625 220.875 211.65625 217.296875 C 211.65625 213.242188 208.121094 209.835938 202.554688 209.835938 Z M 228.414062 209.835938 C 224.402344 209.835938 221.730469 211.257812 219.359375 214.105469 L 221.859375 216.003906 C 223.757812 213.800781 225.351562 212.855469 228.285156 212.855469 C 231.605469 212.855469 233.589844 214.921875 233.589844 218.246094 C 233.589844 223.117188 231.175781 226.351562 219.960938 237.089844 L 219.960938 240.023438 L 237.601562 240.023438 L 238.03125 236.960938 L 224.058594 236.960938 C 233.847656 228.035156 237.339844 223.59375 237.339844 218.160156 C 237.339844 213.414062 234.019531 209.835938 228.414062 209.835938 Z M 264.96875 237.089844 L 258.757812 237.089844 L 258.757812 210.351562 L 255.609375 210.351562 L 246.8125 215.785156 L 248.363281 218.332031 L 255.179688 214.234375 L 255.179688 237.089844 L 247.847656 237.089844 L 247.847656 240.023438 L 264.96875 240.023438 Z M 317.160156 232.777344 L 317.160156 229.929688 L 313.320312 229.929688 L 313.320312 221.480469 L 310.171875 221.480469 L 309.871094 229.929688 L 301.289062 229.929688 L 309.222656 211.128906 L 306.246094 209.835938 L 297.492188 230.191406 L 297.492188 232.777344 L 309.828125 232.777344 L 309.828125 240.023438 L 313.320312 240.023438 L 313.320312 232.777344 Z M 331.847656 209.835938 C 328.828125 209.835938 325.9375 210.871094 323.4375 213.285156 L 325.378906 215.484375 C 327.363281 213.628906 329.128906 212.726562 331.675781 212.726562 C 334.824219 212.726562 337.324219 214.492188 337.324219 217.769531 C 337.324219 221.351562 334.519531 222.988281 331.675781 222.988281 L 329.90625 222.988281 L 329.476562 225.835938 L 331.976562 225.835938 C 335.46875 225.835938 338.144531 227.214844 338.144531 231.484375 C 338.144531 235.191406 335.683594 237.566406 331.503906 237.566406 C 329.085938 237.566406 326.585938 236.574219 324.902344 234.589844 L 322.488281 236.574219 C 324.730469 239.332031 328.265625 240.496094 331.589844 240.496094 C 337.710938 240.496094 341.894531 236.617188 341.894531 231.484375 C 341.894531 226.871094 338.617188 224.453125 335.125 224.195312 C 338.273438 223.59375 340.945312 220.875 340.945312 217.296875 C 340.945312 213.242188 337.410156 209.835938 331.847656 209.835938 Z M 357.703125 209.835938 C 353.695312 209.835938 351.019531 211.257812 348.648438 214.105469 L 351.148438 216.003906 C 353.046875 213.800781 354.644531 212.855469 357.574219 212.855469 C 360.894531 212.855469 362.878906 214.921875 362.878906 218.246094 C 362.878906 223.117188 360.464844 226.351562 349.253906 237.089844 L 349.253906 240.023438 L 366.890625 240.023438 L 367.320312 236.960938 L 353.351562 236.960938 C 363.140625 228.035156 366.632812 223.59375 366.632812 218.160156 C 366.632812 213.414062 363.3125 209.835938 357.703125 209.835938 Z M 394.257812 237.089844 L 388.046875 237.089844 L 388.046875 210.351562 L 384.898438 210.351562 L 376.101562 215.785156 L 377.65625 218.332031 L 384.46875 214.234375 L 384.46875 237.089844 L 377.136719 237.089844 L 377.136719 240.023438 L 394.257812 240.023438 Z M 446.449219 232.777344 L 446.449219 229.929688 L 442.609375 229.929688 L 442.609375 221.480469 L 439.464844 221.480469 L 439.160156 229.929688 L 430.578125 229.929688 L 438.515625 211.128906 L 435.539062 209.835938 L 426.785156 230.191406 L 426.785156 232.777344 L 439.117188 232.777344 L 439.117188 240.023438 L 442.609375 240.023438 L 442.609375 232.777344 Z M 461.136719 209.835938 C 458.121094 209.835938 455.230469 210.871094 452.726562 213.285156 L 454.667969 215.484375 C 456.652344 213.628906 458.421875 212.726562 460.964844 212.726562 C 464.113281 212.726562 466.613281 214.492188 466.613281 217.769531 C 466.613281 221.351562 463.8125 222.988281 460.964844 222.988281 L 459.195312 222.988281 L 458.765625 225.835938 L 461.265625 225.835938 C 464.761719 225.835938 467.433594 227.214844 467.433594 231.484375 C 467.433594 235.191406 464.976562 237.566406 460.792969 237.566406 C 458.378906 237.566406 455.878906 236.574219 454.195312 234.589844 L 451.78125 236.574219 C 454.023438 239.332031 457.558594 240.496094 460.878906 240.496094 C 467.003906 240.496094 471.1875 236.617188 471.1875 231.484375 C 471.1875 226.871094 467.910156 224.453125 464.414062 224.195312 C 467.5625 223.59375 470.238281 220.875 470.238281 217.296875 C 470.238281 213.242188 466.699219 209.835938 461.136719 209.835938 Z M 486.996094 209.835938 C 482.984375 209.835938 480.3125 211.257812 477.941406 214.105469 L 480.441406 216.003906 C 482.339844 213.800781 483.933594 212.855469 486.867188 212.855469 C 490.1875 212.855469 492.171875 214.921875 492.171875 218.246094 C 492.171875 223.117188 489.757812 226.351562 478.542969 237.089844 L 478.542969 240.023438 L 496.183594 240.023438 L 496.613281 236.960938 L 482.640625 236.960938 C 492.429688 228.035156 495.921875 223.59375 495.921875 218.160156 C 495.921875 213.414062 492.601562 209.835938 486.996094 209.835938 Z M 523.550781 237.089844 L 517.339844 237.089844 L 517.339844 210.351562 L 514.191406 210.351562 L 505.394531 215.785156 L 506.945312 218.332031 L 513.757812 214.234375 L 513.757812 237.089844 L 506.429688 237.089844 L 506.429688 240.023438 L 523.550781 240.023438 Z M 523.550781 237.089844 "/>
<path style=" stroke:none;fill-rule:nonzero;fill:rgb(100%,100%,100%);fill-opacity:0.760784;" d="M 41.707031 311.566406 L 46.539062 311.566406 L 46.539062 294.882812 L 41.28125 295.9375 L 41.28125 293.242188 L 46.507812 292.1875 L 49.46875 292.1875 L 49.46875 311.566406 L 54.304688 311.566406 L 54.304688 314.054688 L 41.707031 314.054688 Z M 60.804688 311.566406 L 65.640625 311.566406 L 65.640625 294.882812 L 60.382812 295.9375 L 60.382812 293.242188 L 65.613281 292.1875 L 68.570312 292.1875 L 68.570312 311.566406 L 73.402344 311.566406 L 73.402344 314.054688 L 60.804688 314.054688 Z M 91.496094 311.566406 L 101.820312 311.566406 L 101.820312 314.054688 L 87.933594 314.054688 L 87.933594 311.566406 C 89.453125 310 90.984375 308.441406 92.519531 306.894531 C 94.464844 304.929688 95.683594 303.664062 96.183594 303.097656 C 97.128906 302.035156 97.789062 301.136719 98.160156 300.402344 C 98.539062 299.660156 98.730469 298.933594 98.730469 298.222656 C 98.730469 297.058594 98.320312 296.109375 97.5 295.378906 C 96.691406 294.648438 95.632812 294.28125 94.320312 294.28125 C 93.394531 294.28125 92.414062 294.441406 91.378906 294.765625 C 90.351562 295.085938 89.253906 295.574219 88.082031 296.230469 L 88.082031 293.242188 C 89.273438 292.761719 90.386719 292.398438 91.421875 292.15625 C 92.457031 291.910156 93.402344 291.789062 94.265625 291.789062 C 96.527344 291.789062 98.335938 292.355469 99.683594 293.488281 C 101.03125 294.621094 101.707031 296.136719 101.707031 298.03125 C 101.707031 298.910156 101.535156 299.78125 101.191406 300.59375 C 100.859375 301.394531 100.25 302.339844 99.363281 303.4375 C 99.117188 303.71875 98.339844 304.539062 97.03125 305.898438 C 95.191406 307.789062 93.34375 309.679688 91.496094 311.566406 Z M 117.011719 302.265625 C 118.429688 302.566406 119.53125 303.195312 120.324219 304.152344 C 121.125 305.109375 121.523438 306.292969 121.523438 307.699219 C 121.523438 309.855469 120.78125 311.527344 119.296875 312.707031 C 117.8125 313.890625 115.703125 314.480469 112.96875 314.480469 C 112.050781 314.480469 111.105469 314.386719 110.128906 314.203125 C 109.105469 314.011719 108.101562 313.742188 107.125 313.398438 L 107.125 310.539062 C 107.96875 311.027344 108.875 311.394531 109.820312 311.625 C 110.820312 311.871094 111.851562 311.996094 112.882812 311.992188 C 114.738281 311.992188 116.148438 311.625 117.117188 310.890625 C 118.09375 310.160156 118.582031 309.09375 118.582031 307.699219 C 118.582031 306.410156 118.125 305.402344 117.21875 304.679688 C 116.320312 303.949219 115.066406 303.582031 113.453125 303.582031 L 110.902344 303.582031 L 110.902344 301.152344 L 113.570312 301.152344 C 115.023438 301.152344 116.136719 300.863281 116.910156 300.285156 C 117.683594 299.699219 118.066406 298.859375 118.066406 297.765625 C 118.066406 296.644531 117.667969 295.785156 116.867188 295.1875 C 116.074219 294.582031 114.9375 294.28125 113.453125 294.28125 C 112.640625 294.28125 111.773438 294.367188 110.84375 294.542969 C 109.917969 294.71875 108.898438 294.992188 107.785156 295.363281 L 107.785156 292.726562 C 108.820312 292.433594 109.871094 292.199219 110.933594 292.023438 C 111.855469 291.875 112.785156 291.796875 113.714844 291.789062 C 115.960938 291.789062 117.742188 292.304688 119.050781 293.328125 C 120.355469 294.34375 121.011719 295.71875 121.011719 297.460938 C 121.011719 298.671875 120.664062 299.695312 119.972656 300.535156 C 119.277344 301.367188 118.292969 301.941406 117.011719 302.265625 Z M 136.730469 292.1875 L 148.34375 292.1875 L 148.34375 294.675781 L 139.441406 294.675781 L 139.441406 300.039062 C 139.859375 299.894531 140.292969 299.785156 140.730469 299.714844 C 141.15625 299.636719 141.585938 299.597656 142.019531 299.597656 C 144.460938 299.597656 146.394531 300.265625 147.820312 301.605469 C 149.246094 302.941406 149.957031 304.753906 149.957031 307.039062 C 149.957031 309.394531 149.226562 311.222656 147.761719 312.53125 C 146.296875 313.832031 144.230469 314.480469 141.5625 314.480469 C 140.644531 314.480469 139.707031 314.402344 138.75 314.246094 C 137.753906 314.078125 136.773438 313.84375 135.808594 313.542969 L 135.808594 310.570312 C 136.667969 311.039062 137.582031 311.398438 138.53125 311.640625 C 139.46875 311.875 140.460938 311.992188 141.503906 311.992188 C 143.195312 311.992188 144.535156 311.546875 145.519531 310.65625 C 146.503906 309.769531 147 308.5625 147 307.039062 C 147 305.515625 146.503906 304.308594 145.519531 303.421875 C 144.535156 302.53125 143.195312 302.089844 141.503906 302.089844 C 140.714844 302.089844 139.921875 302.175781 139.132812 302.351562 C 138.304688 302.542969 137.5 302.816406 136.730469 303.171875 Z M 162.128906 303.671875 C 160.722656 303.671875 159.613281 304.046875 158.804688 304.796875 C 158.003906 305.550781 157.601562 306.585938 157.601562 307.902344 C 157.601562 309.222656 158.003906 310.257812 158.804688 311.007812 C 159.613281 311.761719 160.722656 312.136719 162.128906 312.136719 C 163.535156 312.136719 164.644531 311.761719 165.457031 311.007812 C 166.265625 310.246094 166.671875 309.210938 166.671875 307.902344 C 166.671875 306.585938 166.265625 305.550781 165.457031 304.796875 C 164.652344 304.046875 163.546875 303.671875 162.128906 303.671875 Z M 159.171875 302.410156 C 157.902344 302.097656 156.910156 301.507812 156.195312 300.636719 C 155.492188 299.769531 155.144531 298.710938 155.144531 297.460938 C 155.144531 295.710938 155.761719 294.328125 157.003906 293.3125 C 158.253906 292.296875 159.960938 291.789062 162.128906 291.789062 C 164.308594 291.789062 166.015625 292.296875 167.257812 293.3125 C 168.496094 294.328125 169.117188 295.710938 169.117188 297.460938 C 169.117188 298.710938 168.761719 299.769531 168.046875 300.636719 C 167.34375 301.507812 166.363281 302.097656 165.101562 302.410156 C 166.527344 302.742188 167.636719 303.390625 168.429688 304.359375 C 169.230469 305.324219 169.628906 306.507812 169.628906 307.902344 C 169.628906 310.023438 168.980469 311.648438 167.679688 312.78125 C 166.394531 313.914062 164.542969 314.480469 162.128906 314.480469 C 159.71875 314.480469 157.863281 313.914062 156.5625 312.78125 C 155.273438 311.648438 154.628906 310.023438 154.628906 307.902344 C 154.628906 306.507812 155.03125 305.324219 155.832031 304.359375 C 156.632812 303.390625 157.746094 302.742188 159.171875 302.410156 Z M 158.085938 297.738281 C 158.085938 298.871094 158.4375 299.753906 159.140625 300.390625 C 159.855469 301.023438 160.851562 301.339844 162.128906 301.339844 C 163.398438 301.339844 164.390625 301.023438 165.101562 300.390625 C 165.824219 299.753906 166.1875 298.871094 166.1875 297.738281 C 166.1875 296.605469 165.824219 295.722656 165.101562 295.085938 C 164.390625 294.453125 163.398438 294.132812 162.128906 294.132812 C 160.851562 294.132812 159.855469 294.453125 159.140625 295.085938 C 158.4375 295.722656 158.085938 296.605469 158.085938 297.738281 Z M 158.085938 297.738281 "/>
<path style=" stroke:none;fill-rule:nonzero;fill:rgb(100%,100%,100%);fill-opacity:0.784314;" d="M 231.628906 310.839844 L 236.460938 310.839844 L 236.460938 294.15625 L 231.203125 295.210938 L 231.203125 292.515625 L 236.429688 291.460938 L 239.390625 291.460938 L 239.390625 310.839844 L 244.226562 310.839844 L 244.226562 313.328125 L 231.628906 313.328125 Z M 259.179688 301.539062 C 260.597656 301.839844 261.699219 302.46875 262.492188 303.425781 C 263.292969 304.382812 263.691406 305.566406 263.691406 306.972656 C 263.691406 309.128906 262.949219 310.800781 261.464844 311.984375 C 259.980469 313.164062 257.871094 313.753906 255.136719 313.753906 C 254.21875 313.753906 253.273438 313.660156 252.296875 313.476562 C 251.273438 313.285156 250.273438 313.015625 249.292969 312.671875 L 249.292969 309.8125 C 250.136719 310.300781 251.042969 310.667969 251.988281 310.898438 C 252.992188 311.144531 254.019531 311.269531 255.050781 311.265625 C 256.90625 311.265625 258.316406 310.898438 259.285156 310.167969 C 260.257812 309.433594 260.746094 308.371094 260.746094 306.972656 C 260.746094 305.683594 260.292969 304.679688 259.386719 303.953125 C 258.488281 303.222656 257.234375 302.855469 255.621094 302.855469 L 253.074219 302.855469 L 253.074219 300.425781 L 255.738281 300.425781 C 257.195312 300.425781 258.308594 300.136719 259.078125 299.558594 C 259.847656 298.976562 260.234375 298.132812 260.234375 297.039062 C 260.234375 295.917969 259.835938 295.058594 259.035156 294.460938 C 258.242188 293.859375 257.105469 293.554688 255.621094 293.554688 C 254.8125 293.554688 253.941406 293.640625 253.015625 293.816406 C 252.085938 293.992188 251.066406 294.269531 249.953125 294.640625 L 249.953125 292.003906 C 250.988281 291.707031 252.039062 291.472656 253.101562 291.296875 C 254.023438 291.148438 254.953125 291.070312 255.882812 291.066406 C 258.132812 291.066406 259.910156 291.578125 261.214844 292.601562 C 262.527344 293.617188 263.179688 294.996094 263.179688 296.734375 C 263.179688 297.945312 262.832031 298.96875 262.140625 299.808594 C 261.445312 300.640625 260.460938 301.214844 259.179688 301.539062 Z M 271.867188 310.839844 L 282.195312 310.839844 L 282.195312 313.328125 L 268.304688 313.328125 L 268.304688 310.839844 C 269.824219 309.273438 271.355469 307.714844 272.890625 306.167969 C 274.835938 304.203125 276.054688 302.9375 276.554688 302.371094 C 277.5 301.308594 278.160156 300.410156 278.53125 299.675781 C 278.914062 298.933594 279.101562 298.207031 279.101562 297.496094 C 279.101562 296.332031 278.691406 295.386719 277.871094 294.652344 C 277.0625 293.921875 276.003906 293.554688 274.695312 293.554688 C 273.765625 293.554688 272.785156 293.714844 271.75 294.039062 C 270.722656 294.359375 269.625 294.847656 268.453125 295.503906 L 268.453125 292.515625 C 269.644531 292.035156 270.757812 291.675781 271.792969 291.429688 C 272.828125 291.1875 273.777344 291.066406 274.636719 291.066406 C 276.898438 291.066406 278.707031 291.628906 280.054688 292.765625 C 281.402344 293.898438 282.078125 295.410156 282.078125 297.304688 C 282.078125 298.183594 281.90625 299.058594 281.5625 299.867188 C 281.230469 300.667969 280.621094 301.617188 279.734375 302.710938 C 279.488281 302.992188 278.710938 303.8125 277.402344 305.171875 C 275.5625 307.0625 273.714844 308.953125 271.867188 310.839844 Z M 288.929688 310.839844 L 293.765625 310.839844 L 293.765625 294.15625 L 288.507812 295.210938 L 288.507812 292.515625 L 293.738281 291.460938 L 296.695312 291.460938 L 296.695312 310.839844 L 301.527344 310.839844 L 301.527344 313.328125 L 288.929688 313.328125 Z M 326.035156 301.539062 C 327.453125 301.839844 328.554688 302.46875 329.347656 303.425781 C 330.148438 304.382812 330.546875 305.566406 330.546875 306.972656 C 330.546875 309.128906 329.804688 310.800781 328.320312 311.984375 C 326.835938 313.164062 324.726562 313.753906 321.992188 313.753906 C 321.074219 313.753906 320.128906 313.660156 319.152344 313.476562 C 318.128906 313.285156 317.125 313.015625 316.148438 312.671875 L 316.148438 309.8125 C 316.992188 310.300781 317.898438 310.667969 318.84375 310.898438 C 319.84375 311.144531 320.875 311.269531 321.90625 311.265625 C 323.761719 311.265625 325.171875 310.898438 326.140625 310.167969 C 327.117188 309.433594 327.605469 308.371094 327.605469 306.972656 C 327.605469 305.683594 327.148438 304.679688 326.242188 303.953125 C 325.34375 303.222656 324.085938 302.855469 322.476562 302.855469 L 319.929688 302.855469 L 319.929688 300.425781 L 322.59375 300.425781 C 324.046875 300.425781 325.164062 300.136719 325.933594 299.558594 C 326.707031 298.976562 327.089844 298.132812 327.089844 297.039062 C 327.089844 295.917969 326.691406 295.058594 325.890625 294.460938 C 325.097656 293.859375 323.960938 293.554688 322.476562 293.554688 C 321.667969 293.554688 320.796875 293.640625 319.867188 293.816406 C 318.941406 293.992188 317.921875 294.269531 316.808594 294.640625 L 316.808594 292.003906 C 317.84375 291.707031 318.894531 291.472656 319.957031 291.296875 C 320.878906 291.148438 321.808594 291.070312 322.738281 291.066406 C 324.984375 291.066406 326.765625 291.578125 328.074219 292.601562 C 329.382812 293.617188 330.035156 294.996094 330.035156 296.734375 C 330.035156 297.945312 329.6875 298.96875 328.996094 299.808594 C 328.300781 300.640625 327.316406 301.214844 326.035156 301.539062 Z M 344.300781 294.039062 L 336.832031 305.710938 L 344.300781 305.710938 Z M 343.527344 291.460938 L 347.246094 291.460938 L 347.246094 305.710938 L 350.367188 305.710938 L 350.367188 308.171875 L 347.246094 308.171875 L 347.246094 313.328125 L 344.304688 313.328125 L 344.304688 308.171875 L 334.429688 308.171875 L 334.429688 305.316406 Z M 355.304688 291.460938 L 366.921875 291.460938 L 366.921875 293.949219 L 358.015625 293.949219 L 358.015625 299.3125 C 358.433594 299.167969 358.863281 299.058594 359.304688 298.988281 C 359.726562 298.910156 360.160156 298.871094 360.589844 298.871094 C 363.035156 298.871094 364.96875 299.539062 366.394531 300.878906 C 367.816406 302.21875 368.53125 304.027344 368.53125 306.3125 C 368.53125 308.667969 367.800781 310.5 366.332031 311.804688 C 364.867188 313.105469 362.804688 313.753906 360.136719 313.753906 C 359.21875 313.753906 358.28125 313.675781 357.324219 313.519531 C 356.328125 313.351562 355.34375 313.117188 354.382812 312.816406 L 354.382812 309.84375 C 355.238281 310.316406 356.15625 310.675781 357.105469 310.914062 C 358.042969 311.148438 359.035156 311.265625 360.078125 311.265625 C 361.769531 311.265625 363.105469 310.820312 364.09375 309.929688 C 365.078125 309.042969 365.574219 307.835938 365.574219 306.3125 C 365.574219 304.789062 365.078125 303.582031 364.09375 302.695312 C 363.105469 301.808594 361.769531 301.363281 360.078125 301.363281 C 359.289062 301.363281 358.496094 301.449219 357.707031 301.625 C 356.878906 301.816406 356.074219 302.09375 355.304688 302.445312 Z M 374.40625 291.460938 L 386.023438 291.460938 L 386.023438 293.949219 L 377.113281 293.949219 L 377.113281 299.3125 C 377.535156 299.167969 377.964844 299.058594 378.402344 298.988281 C 378.828125 298.910156 379.261719 298.871094 379.695312 298.871094 C 382.132812 298.871094 384.066406 299.539062 385.492188 300.878906 C 386.917969 302.21875 387.632812 304.027344 387.632812 306.3125 C 387.632812 308.667969 386.898438 310.5 385.433594 311.804688 C 383.96875 313.105469 381.90625 313.753906 379.238281 313.753906 C 378.320312 313.753906 377.382812 313.675781 376.425781 313.519531 C 375.429688 313.351562 374.445312 313.117188 373.480469 312.816406 L 373.480469 309.84375 C 374.339844 310.316406 375.257812 310.675781 376.207031 310.914062 C 377.144531 311.148438 378.136719 311.265625 379.179688 311.265625 C 380.871094 311.265625 382.207031 310.820312 383.195312 309.929688 C 384.179688 309.042969 384.671875 307.835938 384.671875 306.3125 C 384.671875 304.789062 384.179688 303.582031 383.195312 302.695312 C 382.207031 301.808594 380.871094 301.363281 379.179688 301.363281 C 378.390625 301.363281 377.597656 301.449219 376.808594 301.625 C 375.980469 301.816406 375.175781 302.09375 374.40625 302.445312 Z M 374.40625 291.460938 "/>
</g>
</svg>
