<svg width="32" height="21" viewBox="0 0 32 21" fill="none" xmlns="http://www.w3.org/2000/svg">
<path d="M0 19.5C0 20.3283 0.7165 21 1.6 21H30.4C31.2835 21 32 20.3283 32 19.5V4.5H0V19.5ZM22.4 9.75C22.4 9.33562 22.758 9 23.2 9H28C28.442 9 28.8 9.33562 28.8 9.75V11.25C28.8 11.6644 28.442 12 28 12H23.2C22.758 12 22.4 11.6644 22.4 11.25V9.75ZM22.4 15.375C22.4 15.1678 22.579 15 22.8 15H28.4C28.621 15 28.8 15.1678 28.8 15.375V16.125C28.8 16.3322 28.621 16.5 28.4 16.5H22.8C22.579 16.5 22.4 16.3322 22.4 16.125V15.375ZM3.2 10.875C3.2 10.6678 3.379 10.5 3.6 10.5H18.8C19.021 10.5 19.2 10.6678 19.2 10.875V11.625C19.2 11.8322 19.021 12 18.8 12H3.6C3.379 12 3.2 11.8322 3.2 11.625V10.875ZM3.2 15.375C3.2 15.1678 3.379 15 3.6 15H12.4C12.621 15 12.8 15.1678 12.8 15.375V16.125C12.8 16.3322 12.621 16.5 12.4 16.5H3.6C3.379 16.5 3.2 16.3322 3.2 16.125V15.375ZM31.2 0H0.8C0.358 0 0 0.335625 0 0.75V3H32V0.75C32 0.335625 31.642 0 31.2 0Z" fill="url(#paint0_radial)"/>
<defs>
<radialGradient id="paint0_radial" cx="0" cy="0" r="1" gradientUnits="userSpaceOnUse" gradientTransform="translate(16 8.5) rotate(32.1957) scale(15.9531 7.99445)">
<stop stop-color="#98A9BC" stop-opacity="0.62"/>
<stop offset="0.0001" stop-color="#97A8BB" stop-opacity="0.62"/>
<stop offset="1" stop-color="#6C8097" stop-opacity="0.62"/>
</radialGradient>
</defs>
</svg>
