<svg width="32" height="21" viewBox="0 0 32 21" fill="none" xmlns="http://www.w3.org/2000/svg">
    <path fill-rule="evenodd" clip-rule="evenodd" d="M0 1.5C0 0.671573 0.671573 0 1.5 0H30.5C31.3284 0 32 0.671573 32 1.5V19.5C32 20.3284 31.3284 21 30.5 21H1.5C0.671573 21 0 20.3284 0 19.5V1.5Z" fill="url(#paint0_linear)"/>
    <path fill-rule="evenodd" clip-rule="evenodd" d="M0 1.5C0 0.671573 0.671573 0 1.5 0H30.5C31.3284 0 32 0.671573 32 1.5V19.5C32 20.3284 31.3284 21 30.5 21H1.5C0.671573 21 0 20.3284 0 19.5V1.5Z" fill="#E5E5E5" fill-opacity="0.01"/>
    <path fill-rule="evenodd" clip-rule="evenodd" d="M7.01632 11.3334C6.80583 11.5247 6.5323 11.6082 6.09938 11.6082H5.91955V9.32239H6.09938C6.5323 9.32239 6.79508 9.40038 7.01632 9.60202C7.24804 9.80955 7.38739 10.1314 7.38739 10.4624C7.38739 10.7943 7.24804 11.1259 7.01632 11.3334ZM6.23356 8.73682H5.25V12.1932H6.22838C6.74863 12.1932 7.12435 12.0699 7.45402 11.7942C7.84593 11.468 8.07765 10.9762 8.07765 10.4675C8.07765 9.44738 7.32024 8.73682 6.23356 8.73682Z" fill="#212D34"/>
    <path fill-rule="evenodd" clip-rule="evenodd" d="M8.38574 12.1934H9.05583V8.73682H8.38574V12.1934Z" fill="#212D34"/>
    <path fill-rule="evenodd" clip-rule="evenodd" d="M10.6947 10.0632C10.2926 9.91347 10.1746 9.81478 10.1746 9.62796C10.1746 9.41029 10.3849 9.24483 10.6737 9.24483C10.8744 9.24483 11.0395 9.32789 11.214 9.52473L11.5646 9.06281C11.2765 8.80922 10.9318 8.67969 10.5552 8.67969C9.94736 8.67969 9.48378 9.10435 9.48378 9.67002C9.48378 10.1462 9.69958 10.3901 10.3289 10.6179C10.5913 10.7111 10.7248 10.7731 10.7921 10.8147C10.926 10.9027 10.993 11.0273 10.993 11.1725C10.993 11.4525 10.7718 11.66 10.4728 11.66C10.1532 11.66 9.89573 11.4991 9.74151 11.1989L9.30859 11.6184C9.61729 12.0744 9.9881 12.2765 10.498 12.2765C11.1942 12.2765 11.6828 11.8105 11.6828 11.1415C11.6828 10.5923 11.4569 10.3437 10.6947 10.0632Z" fill="#212D34"/>
    <path fill-rule="evenodd" clip-rule="evenodd" d="M11.894 10.4675C11.894 11.4835 12.6869 12.2712 13.7072 12.2712C13.9956 12.2712 14.2427 12.2142 14.5473 12.0698V11.2762C14.2795 11.546 14.0422 11.6548 13.7384 11.6548C13.0635 11.6548 12.5846 11.1624 12.5846 10.4624C12.5846 9.79886 13.0787 9.27538 13.7072 9.27538C14.0268 9.27538 14.2687 9.39009 14.5473 9.66425V8.87102C14.2532 8.72092 14.0114 8.65869 13.723 8.65869C12.7079 8.65869 11.894 9.46247 11.894 10.4675Z" fill="#212D34"/>
    <path fill-rule="evenodd" clip-rule="evenodd" d="M19.86 11.0585L18.944 8.73682H18.2119L19.6697 12.282H20.0303L21.5143 8.73682H20.7879L19.86 11.0585Z" fill="#212D34"/>
    <path fill-rule="evenodd" clip-rule="evenodd" d="M21.8174 12.1934H23.7176V11.6082H22.4869V10.6752H23.6724V10.0897H22.4869V9.32252H23.7176V8.73682H21.8174V12.1934Z" fill="#212D34"/>
    <path fill-rule="evenodd" clip-rule="evenodd" d="M25.0262 10.3282H24.8304V9.28139H25.0368C25.4542 9.28139 25.681 9.45727 25.681 9.79365C25.681 10.1411 25.4542 10.3282 25.0262 10.3282ZM26.3705 9.75733C26.3705 9.1102 25.9275 8.73682 25.1548 8.73682H24.1611V12.1934H24.8304V10.8048H24.9179L25.8453 12.1934H26.6693L25.5878 10.7373C26.0925 10.6339 26.3705 10.2866 26.3705 9.75733Z" fill="#212D34"/>
    <g filter="url(#filter0_i)">
    <path fill-rule="evenodd" clip-rule="evenodd" d="M18.421 10.4769C18.421 11.4925 17.6028 12.3158 16.5935 12.3158C15.5842 12.3158 14.7661 11.4925 14.7661 10.4769C14.7661 9.46133 15.5842 8.63818 16.5935 8.63818C17.6028 8.63818 18.421 9.46133 18.421 10.4769Z" fill="url(#paint1_linear)"/>
    </g>
    <defs>
    <filter id="filter0_i" x="14.7661" y="8.63818" width="3.65487" height="3.67757" filterUnits="userSpaceOnUse" color-interpolation-filters="sRGB">
    <feFlood flood-opacity="0" result="BackgroundImageFix"/>
    <feBlend mode="normal" in="SourceGraphic" in2="BackgroundImageFix" result="shape"/>
    <feColorMatrix in="SourceAlpha" type="matrix" values="0 0 0 0 0 0 0 0 0 0 0 0 0 0 0 0 0 0 127 0" result="hardAlpha"/>
    <feOffset dx="1" dy="1"/>
    <feComposite in2="hardAlpha" operator="arithmetic" k2="-1" k3="1"/>
    <feColorMatrix type="matrix" values="0 0 0 0 0.314068 0 0 0 0 0.00146228 0 0 0 0 0.00146228 0 0 0 0.5 0"/>
    <feBlend mode="normal" in2="shape" result="effect1_innerShadow"/>
    </filter>
    <linearGradient id="paint0_linear" x1="-16" y1="10.5" x2="3.26553" y2="39.857" gradientUnits="userSpaceOnUse">
    <stop stop-color="#EDF1F3"/>
    <stop offset="1" stop-color="#D3DADF"/>
    </linearGradient>
    <linearGradient id="paint1_linear" x1="18.8321" y1="10.8284" x2="16.6636" y2="8.2637" gradientUnits="userSpaceOnUse">
    <stop stop-color="#FFA700"/>
    <stop offset="1" stop-color="#E75A10"/>
    </linearGradient>
    </defs>
    </svg>
    