<?xml version="1.0" encoding="utf-8"?>
<svg viewBox="0 0 146 21" fill="none" xmlns="http://www.w3.org/2000/svg">
  <defs>
    <radialGradient id="paint0_radial" cx="0" cy="0" r="1" gradientUnits="userSpaceOnUse" gradientTransform="translate(86.7461 3.98047) rotate(90) scale(21 32)">
      <stop stop-color="#71C8F2"/>
      <stop offset="1" stop-color="#0071BD"/>
    </radialGradient>
    <linearGradient id="paint1_linear" x1="98" y1="10.5" x2="117.266" y2="39.857" gradientUnits="userSpaceOnUse">
      <stop stop-color="#EDF1F3"/>
      <stop offset="1" stop-color="#D3DADF"/>
    </linearGradient>
    <filter id="filter0_i" x="128.766" y="8.63794" width="3.65487" height="3.67757" filterUnits="userSpaceOnUse" color-interpolation-filters="sRGB">
      <feFlood flood-opacity="0" result="BackgroundImageFix"/>
      <feBlend mode="normal" in="SourceGraphic" in2="BackgroundImageFix" result="shape"/>
      <feColorMatrix in="SourceAlpha" type="matrix" values="0 0 0 0 0 0 0 0 0 0 0 0 0 0 0 0 0 0 127 0" result="hardAlpha"/>
      <feOffset dx="1" dy="1"/>
      <feComposite in2="hardAlpha" operator="arithmetic" k2="-1" k3="1"/>
      <feColorMatrix type="matrix" values="0 0 0 0 0.314068 0 0 0 0 0.00146228 0 0 0 0 0.00146228 0 0 0 0.5 0"/>
      <feBlend mode="normal" in2="shape" result="effect1_innerShadow"/>
    </filter>
    <linearGradient id="paint2_linear" x1="132.832" y1="10.8282" x2="130.664" y2="8.26346" gradientUnits="userSpaceOnUse">
      <stop stop-color="#FFA700"/>
      <stop offset="1" stop-color="#E75A10"/>
    </linearGradient>
  </defs>
  <mask id="mask0" mask-type="alpha" maskUnits="userSpaceOnUse" x="52" y="6" width="4" height="9">
    <path fill-rule="evenodd" clip-rule="evenodd" d="M54 6.25716C52.7785 7.26596 52 8.79206 52 10.5C52 12.2079 52.7785 13.734 54 14.7428C55.2215 13.734 56 12.2079 56 10.5C56 8.79206 55.2215 7.26596 54 6.25716Z" fill="white"/>
  </mask>
  <mask id="path-15-outside-1" maskUnits="userSpaceOnUse" x="79.5679" y="7" width="25" height="7" fill="black">
    <rect fill="white" x="79.5679" y="7" width="25" height="7"/>
    <path fill-rule="evenodd" clip-rule="evenodd" d="M83.3963 11.0672L84.0631 9.23249H84.0775L84.7228 11.0672H83.3963ZM83.5039 8L81.5679 13H82.7008L83.1023 11.8866H85.0168L85.404 13H86.5728L84.6583 8H83.5039ZM87.0173 8V13H88.0714V9.4916H88.0857L89.3405 13H90.2081L91.4629 9.45658H91.4773V13H92.5313V8H90.9467L89.8138 11.4384H89.7994L88.602 8H87.0173ZM93.5208 8V13H97.4071V12.0756H94.6466V10.8501H97.1275V9.9958H94.6466V8.92437H97.3498V8H93.5208ZM99.422 10.381L97.6366 13H98.8986L100.039 11.2703L101.157 13H102.498L100.713 10.388L102.355 8H101.121L100.082 9.59664L99.0778 8H97.7728L99.422 10.381Z"/>
  </mask>
  <path fill-rule="evenodd" clip-rule="evenodd" d="M 22.445 7.325 C 22.06 7.17 21.456 7 20.702 7 C 18.783 7 17.431 8.051 17.418 9.559 C 17.408 10.672 18.385 11.293 19.121 11.663 C 19.878 12.043 20.131 12.287 20.129 12.625 C 20.124 13.144 19.524 13.383 18.966 13.383 C 18.189 13.383 17.775 13.265 17.137 12.976 L 16.887 12.851 L 16.615 14.587 C 17.069 14.803 17.908 14.991 18.779 15 C 20.82 15 22.147 13.961 22.162 12.353 C 22.169 11.469 21.652 10.8 20.53 10.247 C 19.852 9.888 19.434 9.65 19.44 9.287 C 19.441 8.963 19.792 8.619 20.552 8.619 C 21.187 8.608 21.648 8.759 22.007 8.917 L 22.181 9.005 L 22.445 7.325 Z M 13.455 14.885 L 14.67 7.135 L 16.613 7.135 L 15.397 14.885 L 13.455 14.885 Z M 25.805 9.971 C 25.805 9.971 25.192 11.691 25.031 12.137 L 26.644 12.137 C 26.566 11.751 26.193 9.899 26.193 9.899 L 26.063 9.232 C 26.01 9.385 25.938 9.589 25.884 9.744 C 25.834 9.882 25.799 9.981 25.805 9.971 Z M 27.427 7.143 L 25.926 7.143 C 25.461 7.143 25.112 7.28 24.909 7.785 L 22.022 14.888 L 24.063 14.888 C 24.063 14.888 24.396 13.931 24.471 13.723 C 24.577 13.723 25.069 13.723 25.593 13.725 C 26.183 13.726 26.811 13.727 26.96 13.727 C 27.017 13.997 27.197 14.888 27.197 14.888 L 29 14.888 L 27.427 7.143 Z M 11.825 7.143 L 9.923 12.425 L 9.72 11.351 L 9.039 7.791 C 8.921 7.299 8.58 7.153 8.158 7.136 L 5.026 7.136 L 5 7.297 C 5.763 7.498 6.443 7.787 7.04 8.147 L 8.769 14.879 L 10.824 14.877 L 13.883 7.143 L 11.825 7.143 Z" fill="#0071CE"/>
  <path fill-rule="evenodd" clip-rule="evenodd" d="M38 1.5C38 0.671573 38.6716 0 39.5 0H68.5C69.3284 0 70 0.671573 70 1.5V19.5C70 20.3284 69.3284 21 68.5 21H39.5C38.6716 21 38 20.3284 38 19.5V1.5Z" fill="#F4F6F7"/>
  <path fill-rule="evenodd" clip-rule="evenodd" d="M50.5 16C53.5376 16 56 13.5376 56 10.5C56 7.46243 53.5376 5 50.5 5C47.4624 5 45 7.46243 45 10.5C45 13.5376 47.4624 16 50.5 16Z" fill="#D8232A"/>
  <path fill-rule="evenodd" clip-rule="evenodd" d="M54 14.7428C54.9509 15.5282 56.1704 16 57.5 16C60.5376 16 63 13.5376 63 10.5C63 7.46243 60.5376 5 57.5 5C56.1704 5 54.9509 5.47182 54 6.25716C55.2215 7.26595 56 8.79206 56 10.5C56 12.2079 55.2215 13.734 54 14.7428Z" fill="#ED9F2D"/>
  <path fill-rule="evenodd" clip-rule="evenodd" d="M54 6.25716C52.7785 7.26596 52 8.79206 52 10.5C52 12.2079 52.7785 13.734 54 14.7428C55.2215 13.734 56 12.2079 56 10.5C56 8.79206 55.2215 7.26596 54 6.25716Z" fill="#D8232A"/>
  <g mask="url(#mask0)">
    <path fill-rule="evenodd" clip-rule="evenodd" d="M51 7H57V8H51V7ZM51 9H57V10H51V9ZM57 11H51V12H57V11ZM51 13H57V14H51V13ZM57 15H51V16H57V15Z" fill="#ED9F2D"/>
  </g>
  <path fill-rule="evenodd" clip-rule="evenodd" d="M38 1.5C38 0.671573 38.6716 0 39.5 0H68.5C69.3284 0 70 0.671573 70 1.5V19.5C70 20.3284 69.3284 21 68.5 21H39.5C38.6716 21 38 20.3284 38 19.5V1.5Z" fill="#E5E5E5" fill-opacity="0.01"/>
  <path fill-rule="evenodd" clip-rule="evenodd" d="M76 1.5C76 0.671573 76.6716 0 77.5 0H106.5C107.328 0 108 0.671573 108 1.5V19.5C108 20.3284 107.328 21 106.5 21H77.5C76.6716 21 76 20.3284 76 19.5V1.5Z" fill="url(#paint0_radial)"/>
  <path fill-rule="evenodd" clip-rule="evenodd" d="M76 1.5C76 0.671573 76.6716 0 77.5 0H106.5C107.328 0 108 0.671573 108 1.5V19.5C108 20.3284 107.328 21 106.5 21H77.5C76.6716 21 76 20.3284 76 19.5V1.5Z" fill="#E5E5E5" fill-opacity="0.01"/>
  <path fill-rule="evenodd" clip-rule="evenodd" d="M83.3963 11.0672L84.0631 9.23249H84.0775L84.7228 11.0672H83.3963ZM83.5039 8L81.5679 13H82.7008L83.1023 11.8866H85.0168L85.404 13H86.5728L84.6583 8H83.5039ZM87.0173 8V13H88.0714V9.4916H88.0857L89.3405 13H90.2081L91.4629 9.45658H91.4773V13H92.5313V8H90.9467L89.8138 11.4384H89.7994L88.602 8H87.0173ZM93.5208 8V13H97.4071V12.0756H94.6466V10.8501H97.1275V9.9958H94.6466V8.92437H97.3498V8H93.5208ZM99.422 10.381L97.6366 13H98.8986L100.039 11.2703L101.157 13H102.498L100.713 10.388L102.355 8H101.121L100.082 9.59664L99.0778 8H97.7728L99.422 10.381Z" fill="#1793C0" fill-opacity="0.01"/>
  <path d="M83.3963 11.0672L82.4565 10.7256L81.9689 12.0672H83.3963V11.0672ZM84.0631 9.23249V8.23249H83.3626L83.1233 8.8909L84.0631 9.23249ZM84.0775 9.23249L85.0208 8.90069L84.7858 8.23249H84.0775V9.23249ZM84.7228 11.0672V12.0672H86.1346L85.6662 10.7354L84.7228 11.0672ZM83.5039 8V7H82.8187L82.5713 7.63892L83.5039 8ZM81.5679 13L80.6353 12.6389L80.1083 14H81.5679V13ZM82.7008 13V14H83.4032L83.6415 13.3392L82.7008 13ZM83.1023 11.8866V10.8866H82.3999L82.1616 11.5473L83.1023 11.8866ZM85.0168 11.8866L85.9613 11.5581L85.7278 10.8866H85.0168V11.8866ZM85.404 13L84.4595 13.3285L84.693 14H85.404V13ZM86.5728 13V14H88.0265L87.5066 12.6424L86.5728 13ZM84.6583 8L85.5922 7.64242L85.3462 7H84.6583V8ZM87.0173 8V7H86.0173V8H87.0173ZM87.0173 13H86.0173V14H87.0173V13ZM88.0714 13V14H89.0714V13H88.0714ZM88.0714 9.4916V8.4916H87.0714V9.4916H88.0714ZM88.0857 9.4916L89.0273 9.15483L88.7901 8.4916H88.0857V9.4916ZM89.3405 13L88.3989 13.3368L88.6361 14H89.3405V13ZM90.2081 13V14H90.9148L91.1508 13.3338L90.2081 13ZM91.4629 9.45658V8.45658H90.7562L90.5203 9.12277L91.4629 9.45658ZM91.4773 9.45658H92.4773V8.45658H91.4773V9.45658ZM91.4773 13H90.4773V14H91.4773V13ZM92.5313 13V14H93.5313V13H92.5313ZM92.5313 8H93.5313V7H92.5313V8ZM90.9467 8V7H90.2233L89.9969 7.68706L90.9467 8ZM89.8138 11.4384V12.4384H90.5371L90.7635 11.7513L89.8138 11.4384ZM89.7994 11.4384L88.855 11.7673L89.0888 12.4384H89.7994V11.4384ZM88.602 8L89.5463 7.67111L89.3126 7H88.602V8ZM93.5208 8V7H92.5208V8H93.5208ZM93.5208 13H92.5208V14H93.5208V13ZM97.4071 13V14H98.4071V13H97.4071ZM97.4071 12.0756H98.4071V11.0756H97.4071V12.0756ZM94.6466 12.0756H93.6466V13.0756H94.6466V12.0756ZM94.6466 10.8501V9.85014H93.6466V10.8501H94.6466ZM97.1275 10.8501V11.8501H98.1275V10.8501H97.1275ZM97.1275 9.9958H98.1275V8.9958H97.1275V9.9958ZM94.6466 9.9958H93.6466V10.9958H94.6466V9.9958ZM94.6466 8.92437V7.92437H93.6466V8.92437H94.6466ZM97.3498 8.92437V9.92437H98.3498V8.92437H97.3498ZM97.3498 8H98.3498V7H97.3498V8ZM99.422 10.381L100.248 10.9442L100.635 10.3764L100.244 9.81155L99.422 10.381ZM97.6366 13L96.8103 12.4367L95.7446 14H97.6366V13ZM98.8986 13V14H99.4371L99.7335 13.5503L98.8986 13ZM100.039 11.2703L100.878 10.7273L100.047 9.44113L99.2037 10.72L100.039 11.2703ZM101.157 13L100.318 13.543L100.613 14H101.157V13ZM102.498 13V14H104.393L103.324 12.4357L102.498 13ZM100.713 10.388L99.8887 9.82136L99.5002 10.3863L99.8871 10.9523L100.713 10.388ZM102.355 8L103.179 8.5666L104.256 7H102.355V8ZM101.121 8V7H100.579L100.283 7.45432L101.121 8ZM100.082 9.59664L99.2351 10.1289L100.067 11.4519L100.92 10.1423L100.082 9.59664ZM99.0778 8L99.9244 7.46774L99.6303 7H99.0778V8ZM97.7728 8V7H95.8637L96.9508 8.5694L97.7728 8ZM84.3362 11.4088L85.003 9.57408L83.1233 8.8909L82.4565 10.7256L84.3362 11.4088ZM84.0631 10.2325H84.0775V8.23249H84.0631V10.2325ZM83.1341 9.5643L83.7795 11.399L85.6662 10.7354L85.0208 8.90069L83.1341 9.5643ZM84.7228 10.0672H83.3963V12.0672H84.7228V10.0672ZM82.5713 7.63892L80.6353 12.6389L82.5004 13.3611L84.4364 8.36108L82.5713 7.63892ZM81.5679 14H82.7008V12H81.5679V14ZM83.6415 13.3392L84.043 12.2258L82.1616 11.5473L81.7601 12.6608L83.6415 13.3392ZM83.1023 12.8866H85.0168V10.8866H83.1023V12.8866ZM84.0723 12.215L84.4595 13.3285L86.3485 12.6715L85.9613 11.5581L84.0723 12.215ZM85.404 14H86.5728V12H85.404V14ZM87.5066 12.6424L85.5922 7.64242L83.7244 8.35758L85.6389 13.3576L87.5066 12.6424ZM84.6583 7H83.5039V9H84.6583V7ZM86.0173 8V13H88.0173V8H86.0173ZM87.0173 14H88.0714V12H87.0173V14ZM89.0714 13V9.4916H87.0714V13H89.0714ZM88.0714 10.4916H88.0857V8.4916H88.0714V10.4916ZM87.1441 9.82836L88.3989 13.3368L90.2821 12.6632L89.0273 9.15483L87.1441 9.82836ZM89.3405 14H90.2081V12H89.3405V14ZM91.1508 13.3338L92.4056 9.79039L90.5203 9.12277L89.2655 12.6662L91.1508 13.3338ZM91.4629 10.4566H91.4773V8.45658H91.4629V10.4566ZM90.4773 9.45658V13H92.4773V9.45658H90.4773ZM91.4773 14H92.5313V12H91.4773V14ZM93.5313 13V8H91.5313V13H93.5313ZM92.5313 7H90.9467V9H92.5313V7ZM89.9969 7.68706L88.864 11.1254L90.7635 11.7513L91.8964 8.31294L89.9969 7.68706ZM89.8138 10.4384H89.7994V12.4384H89.8138V10.4384ZM90.7438 11.1095L89.5463 7.67111L87.6576 8.32889L88.855 11.7673L90.7438 11.1095ZM88.602 7H87.0173V9H88.602V7ZM92.5208 8V13H94.5208V8H92.5208ZM93.5208 14H97.4071V12H93.5208V14ZM98.4071 13V12.0756H96.4071V13H98.4071ZM97.4071 11.0756H94.6466V13.0756H97.4071V11.0756ZM95.6466 12.0756V10.8501H93.6466V12.0756H95.6466ZM94.6466 11.8501H97.1275V9.85014H94.6466V11.8501ZM98.1275 10.8501V9.9958H96.1275V10.8501H98.1275ZM97.1275 8.9958H94.6466V10.9958H97.1275V8.9958ZM95.6466 9.9958V8.92437H93.6466V9.9958H95.6466ZM94.6466 9.92437H97.3498V7.92437H94.6466V9.92437ZM98.3498 8.92437V8H96.3498V8.92437H98.3498ZM97.3498 7H93.5208V9H97.3498V7ZM98.5957 9.81768L96.8103 12.4367L98.4629 13.5633L100.248 10.9442L98.5957 9.81768ZM97.6366 14H98.8986V12H97.6366V14ZM99.7335 13.5503L100.874 11.8206L99.2037 10.72L98.0636 12.4497L99.7335 13.5503ZM99.1989 11.8133L100.318 13.543L101.997 12.457L100.878 10.7273L99.1989 11.8133ZM101.157 14H102.498V12H101.157V14ZM103.324 12.4357L101.538 9.82365L99.8871 10.9523L101.673 13.5643L103.324 12.4357ZM101.537 10.9546L103.179 8.5666L101.531 7.4334L99.8887 9.82136L101.537 10.9546ZM102.355 7H101.121V9H102.355V7ZM100.283 7.45432L99.2437 9.05096L100.92 10.1423L101.959 8.54568L100.283 7.45432ZM100.928 9.06437L99.9244 7.46774L98.2312 8.53226L99.2351 10.1289L100.928 9.06437ZM99.0778 7H97.7728V9H99.0778V7ZM96.9508 8.5694L98.5999 10.9504L100.244 9.81155L98.5949 7.4306L96.9508 8.5694Z" fill="white" mask="url(#path-15-outside-1)"/>
  <path fill-rule="evenodd" clip-rule="evenodd" d="M114 1.5C114 0.671573 114.672 0 115.5 0H144.5C145.328 0 146 0.671573 146 1.5V19.5C146 20.3284 145.328 21 144.5 21H115.5C114.672 21 114 20.3284 114 19.5V1.5Z" fill="url(#paint1_linear)"/>
  <path fill-rule="evenodd" clip-rule="evenodd" d="M114 1.5C114 0.671573 114.672 0 115.5 0H144.5C145.328 0 146 0.671573 146 1.5V19.5C146 20.3284 145.328 21 144.5 21H115.5C114.672 21 114 20.3284 114 19.5V1.5Z" fill="#E5E5E5" fill-opacity="0.01"/>
  <path fill-rule="evenodd" clip-rule="evenodd" d="M121.016 11.3331C120.806 11.5244 120.532 11.6079 120.099 11.6079H119.92V9.32208H120.099C120.532 9.32208 120.795 9.40007 121.016 9.60171C121.248 9.80923 121.387 10.1311 121.387 10.4621C121.387 10.794 121.248 11.1255 121.016 11.3331ZM120.234 8.7365H119.25V12.1929H120.228C120.749 12.1929 121.124 12.0695 121.454 11.7939C121.846 11.4677 122.078 10.9758 122.078 10.4672C122.078 9.44707 121.32 8.7365 120.234 8.7365Z" fill="#212D34"/>
  <path fill-rule="evenodd" clip-rule="evenodd" d="M122.386 12.193H123.056V8.73647H122.386V12.193Z" fill="#212D34"/>
  <path fill-rule="evenodd" clip-rule="evenodd" d="M124.695 10.0629C124.293 9.91317 124.175 9.81448 124.175 9.62766C124.175 9.40999 124.385 9.24453 124.674 9.24453C124.874 9.24453 125.039 9.32759 125.214 9.52443L125.565 9.06252C125.277 8.80892 124.932 8.67939 124.555 8.67939C123.947 8.67939 123.484 9.10405 123.484 9.66973C123.484 10.1459 123.7 10.3898 124.329 10.6176C124.591 10.7108 124.725 10.7728 124.792 10.8144C124.926 10.9024 124.993 11.027 124.993 11.1722C124.993 11.4522 124.772 11.6597 124.473 11.6597C124.153 11.6597 123.896 11.4988 123.742 11.1986L123.309 11.6181C123.617 12.0741 123.988 12.2762 124.498 12.2762C125.194 12.2762 125.683 11.8102 125.683 11.1412C125.683 10.592 125.457 10.3434 124.695 10.0629Z" fill="#212D34"/>
  <path fill-rule="evenodd" clip-rule="evenodd" d="M125.894 10.4671C125.894 11.4831 126.687 12.2709 127.707 12.2709C127.996 12.2709 128.243 12.2138 128.547 12.0695V11.2759C128.279 11.5456 128.042 11.6544 127.738 11.6544C127.064 11.6544 126.585 11.1621 126.585 10.4621C126.585 9.7985 127.079 9.27502 127.707 9.27502C128.027 9.27502 128.269 9.38973 128.547 9.66389V8.87066C128.253 8.72056 128.011 8.65833 127.723 8.65833C126.708 8.65833 125.894 9.46211 125.894 10.4671Z" fill="#212D34"/>
  <path fill-rule="evenodd" clip-rule="evenodd" d="M133.86 11.0582L132.944 8.7365H132.212L133.67 12.2817H134.03L135.514 8.7365H134.788L133.86 11.0582Z" fill="#212D34"/>
  <path fill-rule="evenodd" clip-rule="evenodd" d="M135.817 12.193H137.718V11.6078H136.487V10.6748H137.672V10.0893H136.487V9.32214H137.718V8.73643H135.817V12.193Z" fill="#212D34"/>
  <path fill-rule="evenodd" clip-rule="evenodd" d="M139.026 10.3278H138.83V9.28097H139.037C139.454 9.28097 139.681 9.45685 139.681 9.79324C139.681 10.1407 139.454 10.3278 139.026 10.3278ZM140.37 9.75691C140.37 9.10978 139.927 8.7364 139.155 8.7364H138.161V12.193H138.83V10.8044H138.918L139.845 12.193H140.669L139.588 10.7368C140.093 10.6335 140.37 10.2861 140.37 9.75691Z" fill="#212D34"/>
  <g filter="url(#filter0_i)">
    <path fill-rule="evenodd" clip-rule="evenodd" d="M132.421 10.4767C132.421 11.4922 131.603 12.3155 130.593 12.3155C129.584 12.3155 128.766 11.4922 128.766 10.4767C128.766 9.46108 129.584 8.63794 130.593 8.63794C131.603 8.63794 132.421 9.46108 132.421 10.4767Z" fill="url(#paint2_linear)"/>
  </g>
</svg>